<svg width="243" height="243" viewBox="0 0 243 243" fill="none" xmlns="http://www.w3.org/2000/svg">
<rect width="243" height="243" rx="20" fill="#FFFBD6"/>
<path fill-rule="evenodd" clip-rule="evenodd" d="M208.29 122C208.29 167.287 171.578 204 126.29 204C81.0028 204 44.2902 167.287 44.2902 122C44.2902 76.7127 81.0028 40 126.29 40C171.578 40 208.29 76.7127 208.29 122Z" fill="black"/>
<circle cx="116" cy="122" r="79.5" fill="#F4DC00" stroke="black" stroke-width="5"/>
<circle cx="116" cy="122" r="58.9196" fill="white" stroke="black" stroke-width="5"/>
<path fill-rule="evenodd" clip-rule="evenodd" d="M114.247 95.3098C111.486 95.3098 109.247 97.5484 109.247 100.31V115.89H93.6667C90.9052 115.89 88.6667 118.129 88.6667 120.89L88.6667 123.753C88.6667 126.514 90.9052 128.753 93.6667 128.753H109.247V144.333C109.247 147.095 111.486 149.333 114.247 149.333H117.11C119.871 149.333 122.11 147.095 122.11 144.333V128.753H137.69C140.452 128.753 142.69 126.514 142.69 123.753V120.89C142.69 118.129 140.452 115.89 137.69 115.89H122.11V100.31C122.11 97.5484 119.871 95.3098 117.11 95.3098H114.247Z" fill="black"/>
</svg>
