<svg width="270" height="243" viewBox="0 0 270 243" fill="none" xmlns="http://www.w3.org/2000/svg">
<circle cx="154.5" cy="127.5" r="107" fill="#FFF7AD" stroke="black" stroke-width="3"/>
<circle cx="135.5" cy="134.5" r="107" fill="#FDE400" stroke="black" stroke-width="3"/>
<circle cx="135" cy="135" r="82.5" fill="white" stroke="black" stroke-width="3"/>
<rect x="128.143" y="134.022" width="10" height="65.3807" rx="5" transform="rotate(-81.0631 128.143 134.022)" fill="#FFAF52" stroke="black" stroke-width="2"/>
<rect x="116.32" y="103.571" width="11" height="37" rx="5.5" transform="rotate(-23.9787 116.32 103.571)" fill="#EA7E00" stroke="black" stroke-width="2"/>
<rect x="132" y="129" width="6" height="67" rx="1" fill="#FFDCB3" stroke="black" stroke-width="2"/>
<mask id="path-7-inside-1_23_2" fill="white">
<path d="M76.4787 25.5675C73.1506 22.21 69.1936 19.5408 64.8339 17.7124C60.4742 15.8841 55.797 14.9323 51.0695 14.9115C46.342 14.8908 41.6566 15.8013 37.281 17.5913C32.9053 19.3812 28.9251 22.0155 25.5675 25.3437C22.21 28.6718 19.5408 32.6287 17.7124 36.9885C15.8841 41.3482 14.9323 46.0254 14.9115 50.7529C14.8908 55.4804 15.8013 60.1658 17.5913 64.5414C19.3812 68.917 22.0155 72.8973 25.3437 76.2549L50.9112 50.9112L76.4787 25.5675Z"/>
</mask>
<path d="M76.4787 25.5675C73.1506 22.21 69.1936 19.5408 64.8339 17.7124C60.4742 15.8841 55.797 14.9323 51.0695 14.9115C46.342 14.8908 41.6566 15.8013 37.281 17.5913C32.9053 19.3812 28.9251 22.0155 25.5675 25.3437C22.21 28.6718 19.5408 32.6287 17.7124 36.9885C15.8841 41.3482 14.9323 46.0254 14.9115 50.7529C14.8908 55.4804 15.8013 60.1658 17.5913 64.5414C19.3812 68.917 22.0155 72.8973 25.3437 76.2549L50.9112 50.9112L76.4787 25.5675Z" fill="#FFE815" stroke="black" stroke-width="6" mask="url(#path-7-inside-1_23_2)"/>
<mask id="path-8-inside-2_23_2" fill="white">
<path d="M244.478 76.2557C247.806 72.8983 250.441 68.9181 252.231 64.5426C254.021 60.167 254.932 55.4817 254.911 50.7541C254.89 46.0266 253.939 41.3494 252.11 36.9896C250.282 32.6298 247.613 28.6728 244.256 25.3445C240.898 22.0162 236.918 19.3818 232.543 17.5917C228.167 15.8017 223.482 14.8909 218.754 14.9115C214.027 14.9322 209.349 15.8838 204.99 17.712C200.63 19.5402 196.673 22.2092 193.345 25.5667L218.911 50.9112L244.478 76.2557Z"/>
</mask>
<path d="M244.478 76.2557C247.806 72.8983 250.441 68.9181 252.231 64.5426C254.021 60.167 254.932 55.4817 254.911 50.7541C254.89 46.0266 253.939 41.3494 252.11 36.9896C250.282 32.6298 247.613 28.6728 244.256 25.3445C240.898 22.0162 236.918 19.3818 232.543 17.5917C228.167 15.8017 223.482 14.8909 218.754 14.9115C214.027 14.9322 209.349 15.8838 204.99 17.712C200.63 19.5402 196.673 22.2092 193.345 25.5667L218.911 50.9112L244.478 76.2557Z" fill="#FFE815" stroke="black" stroke-width="6" mask="url(#path-8-inside-2_23_2)"/>
<path d="M75.8478 26.6928C75.9262 27.2494 75.8758 28.0236 75.601 29.0778C75.1109 30.958 73.9815 33.4111 72.1909 36.3372C68.6165 42.178 62.8258 49.2227 56.0823 55.9071C49.3388 62.5915 42.2434 68.3201 36.3714 71.843C33.4297 73.6078 30.9667 74.7156 29.0823 75.1891C28.0257 75.4546 27.2512 75.4982 26.6953 75.4149L51.2715 51.0539L75.8478 26.6928Z" fill="#FFF7AD" stroke="black" stroke-width="2"/>
</svg>
