<svg width="113" height="150" viewBox="0 0 113 150" fill="none" xmlns="http://www.w3.org/2000/svg">
<rect x="5" y="18.5308" width="107.943" height="131.469" rx="10" fill="black"/>
<rect x="9.8436" y="58.6635" width="73.346" height="4.15166" fill="black"/>
<rect x="9.15167" y="71.1185" width="71.9621" height="4.15166" fill="black"/>
<rect x="40.2891" y="85.6493" width="40.8246" height="4.15166" fill="black"/>
<rect x="23.6825" y="94.6445" width="59.5071" height="4.15166" fill="black"/>
<path d="M91.4929 18.5308H102.943C108.466 18.5308 112.943 23.0079 112.943 28.5308V140C112.943 145.523 108.466 150 102.943 150H91.4929V18.5308Z" fill="black"/>
<path d="M28.601 30.1418C26.1502 30.6389 23.6056 30.365 21.3167 29.3578C19.0278 28.3506 17.1069 26.6594 15.8178 24.5166C14.5287 22.3738 13.9346 19.8844 14.1172 17.3903C14.2998 14.8963 15.25 12.52 16.8375 10.5877C18.4249 8.65547 20.5716 7.26209 22.9828 6.59896C25.394 5.93582 27.9513 6.03546 30.3036 6.88419C32.6559 7.73292 34.6877 9.28911 36.12 11.339C37.5523 13.3889 38.3148 15.832 38.3027 18.3327L34.1036 18.3125C34.1114 16.679 33.6134 15.0831 32.6778 13.7441C31.7422 12.4051 30.415 11.3886 28.8784 10.8341C27.3419 10.2797 25.6714 10.2147 24.0964 10.6478C22.5213 11.081 21.1191 11.9912 20.0821 13.2534C19.0452 14.5155 18.4245 16.0678 18.3052 17.6969C18.1859 19.3261 18.574 20.9522 19.416 22.3519C20.2581 23.7517 21.5129 24.8563 23.008 25.5143C24.5032 26.1722 26.1653 26.3511 27.7662 26.0264L28.601 30.1418Z" fill="black"/>
<path d="M58.3545 30.1418C55.9037 30.6389 53.3592 30.365 51.0703 29.3578C48.7814 28.3506 46.8604 26.6594 45.5713 24.5166C44.2822 22.3738 43.6882 19.8844 43.8708 17.3903C44.0533 14.8963 45.0036 12.52 46.591 10.5877C48.1785 8.65547 50.3252 7.26209 52.7364 6.59896C55.1476 5.93582 57.7049 6.03546 60.0572 6.88419C62.4095 7.73292 64.4413 9.28911 65.8736 11.339C67.3058 13.3889 68.0683 15.832 68.0563 18.3327L63.8571 18.3125C63.865 16.679 63.3669 15.0831 62.4313 13.7441C61.4958 12.4051 60.1685 11.3886 58.632 10.8341C57.0955 10.2797 55.425 10.2147 53.8499 10.6478C52.2749 11.081 50.8726 11.9912 49.8357 13.2534C48.7988 14.5155 48.178 16.0678 48.0588 17.6969C47.9395 19.3261 48.3275 20.9522 49.1696 22.3519C50.0117 23.7517 51.2664 24.8563 52.7616 25.5143C54.2567 26.1722 55.9189 26.3511 57.5198 26.0264L58.3545 30.1418Z" fill="black"/>
<path d="M86.7242 30.1418C84.2734 30.6389 81.7288 30.365 79.4399 29.3578C77.151 28.3506 75.2301 26.6594 73.941 24.5166C72.6519 22.3738 72.0578 19.8844 72.2404 17.3903C72.423 14.8963 73.3733 12.52 74.9607 10.5877C76.5481 8.65547 78.6949 7.26209 81.106 6.59896C83.5172 5.93582 86.0746 6.03546 88.4269 6.88419C90.7791 7.73292 92.8109 9.28911 94.2432 11.339C95.6755 13.3889 96.438 15.832 96.426 18.3327L92.2268 18.3125C92.2347 16.679 91.7366 15.0831 90.801 13.7441C89.8654 12.4051 88.5382 11.3886 87.0017 10.8341C85.4651 10.2797 83.7946 10.2147 82.2196 10.6478C80.6446 11.081 79.2423 11.9912 78.2054 13.2534C77.1684 14.5155 76.5477 16.0678 76.4284 17.6969C76.3092 19.3261 76.6972 20.9522 77.5393 22.3519C78.3813 23.7517 79.6361 24.8563 81.1312 25.5143C82.6264 26.1722 84.2886 26.3511 85.8895 26.0264L86.7242 30.1418Z" fill="black"/>
<rect y="14.5308" width="107.943" height="131.469" rx="10" fill="#F7F0EB"/>
<rect x="4.8436" y="54.6635" width="73.346" height="4.15166" fill="black"/>
<rect x="4.15167" y="67.1185" width="71.9621" height="4.15166" fill="black"/>
<rect x="35.2891" y="81.6493" width="40.8246" height="4.15166" fill="black"/>
<rect x="18.6825" y="90.6445" width="59.5071" height="4.15166" fill="black"/>
<path d="M86.4929 14.5308H97.9431C103.466 14.5308 107.943 19.0079 107.943 24.5308V136C107.943 141.523 103.466 146 97.9431 146H86.4929V14.5308Z" fill="#F4DC00"/>
<path d="M23.601 26.1418C21.1502 26.6389 18.6056 26.365 16.3167 25.3578C14.0278 24.3506 12.1069 22.6594 10.8178 20.5166C9.52866 18.3738 8.9346 15.8844 9.11719 13.3903C9.29977 10.8963 10.25 8.51997 11.8375 6.58772C13.4249 4.65547 15.5716 3.26209 17.9828 2.59896C20.394 1.93582 22.9513 2.03546 25.3036 2.88419C27.6559 3.73292 29.6877 5.28911 31.12 7.33901C32.5523 9.38891 33.3148 11.832 33.3027 14.3327L29.1036 14.3125C29.1114 12.679 28.6134 11.0831 27.6778 9.74411C26.7422 8.40508 25.415 7.38855 23.8784 6.83415C22.3419 6.27975 20.6714 6.21466 19.0964 6.64783C17.5213 7.081 16.1191 7.99118 15.0821 9.25336C14.0452 10.5155 13.4245 12.0678 13.3052 13.6969C13.1859 15.3261 13.574 16.9522 14.416 18.3519C15.2581 19.7517 16.5129 20.8563 18.008 21.5143C19.5032 22.1722 21.1653 22.3511 22.7662 22.0264L23.601 26.1418Z" fill="#988A43"/>
<path d="M53.3545 26.1418C50.9037 26.6389 48.3592 26.365 46.0703 25.3578C43.7814 24.3506 41.8604 22.6594 40.5713 20.5166C39.2822 18.3738 38.6882 15.8844 38.8708 13.3903C39.0533 10.8963 40.0036 8.51997 41.591 6.58772C43.1785 4.65547 45.3252 3.26209 47.7364 2.59896C50.1476 1.93582 52.7049 2.03546 55.0572 2.88419C57.4095 3.73292 59.4413 5.28911 60.8736 7.33901C62.3058 9.38891 63.0683 11.832 63.0563 14.3327L58.8571 14.3125C58.865 12.679 58.3669 11.0831 57.4313 9.74411C56.4958 8.40508 55.1685 7.38855 53.632 6.83415C52.0955 6.27975 50.425 6.21466 48.8499 6.64783C47.2749 7.081 45.8726 7.99118 44.8357 9.25336C43.7988 10.5155 43.178 12.0678 43.0588 13.6969C42.9395 15.3261 43.3275 16.9522 44.1696 18.3519C45.0117 19.7517 46.2664 20.8563 47.7616 21.5143C49.2567 22.1722 50.9189 22.3511 52.5198 22.0264L53.3545 26.1418Z" fill="#988A43"/>
<path d="M81.7242 26.1418C79.2734 26.6389 76.7288 26.365 74.4399 25.3578C72.151 24.3506 70.2301 22.6594 68.941 20.5166C67.6519 18.3738 67.0578 15.8844 67.2404 13.3903C67.423 10.8963 68.3733 8.51997 69.9607 6.58772C71.5481 4.65547 73.6949 3.26209 76.106 2.59896C78.5172 1.93582 81.0746 2.03546 83.4269 2.88419C85.7791 3.73292 87.8109 5.28911 89.2432 7.33901C90.6755 9.38891 91.438 11.832 91.426 14.3327L87.2268 14.3125C87.2347 12.679 86.7366 11.0831 85.801 9.74411C84.8654 8.40508 83.5382 7.38855 82.0017 6.83415C80.4651 6.27975 78.7946 6.21466 77.2196 6.64783C75.6446 7.081 74.2423 7.99118 73.2054 9.25336C72.1684 10.5155 71.5477 12.0678 71.4284 13.6969C71.3092 15.3261 71.6972 16.9522 72.5393 18.3519C73.3813 19.7517 74.6361 20.8563 76.1312 21.5143C77.6264 22.1722 79.2886 22.3511 80.8895 22.0264L81.7242 26.1418Z" fill="#988A43"/>
</svg>
