<svg width="204" height="178" viewBox="0 0 204 178" fill="none" xmlns="http://www.w3.org/2000/svg">
<path d="M185.851 89C185.851 138.153 146.005 178 96.8513 178C47.698 178 38.5 118.5 7.85134 89C-22.7973 59.5 47.698 0 96.8513 0C146.005 0 185.851 39.8467 185.851 89Z" fill="#FFFDEA"/>
<rect x="96" y="39.5308" width="107.943" height="131.469" rx="10" fill="black"/>
<rect x="100.844" y="79.6635" width="73.346" height="4.15166" fill="black"/>
<rect x="100.152" y="92.1185" width="71.9621" height="4.15166" fill="black"/>
<rect x="131.289" y="106.649" width="40.8246" height="4.15166" fill="black"/>
<rect x="114.682" y="115.645" width="59.5071" height="4.15166" fill="black"/>
<path d="M182.493 39.5308H193.943C199.466 39.5308 203.943 44.008 203.943 49.5308V161C203.943 166.523 199.466 171 193.943 171H182.493V39.5308Z" fill="black"/>
<path d="M119.601 51.1418C117.15 51.6389 114.606 51.365 112.317 50.3578C110.028 49.3506 108.107 47.6594 106.818 45.5166C105.529 43.3738 104.935 40.8844 105.117 38.3903C105.3 35.8963 106.25 33.52 107.837 31.5877C109.425 29.6555 111.572 28.2621 113.983 27.599C116.394 26.9358 118.951 27.0355 121.304 27.8842C123.656 28.7329 125.688 30.2891 127.12 32.339C128.552 34.3889 129.315 36.832 129.303 39.3327L125.104 39.3125C125.111 37.679 124.613 36.0831 123.678 34.7441C122.742 33.4051 121.415 32.3886 119.878 31.8341C118.342 31.2797 116.671 31.2147 115.096 31.6478C113.521 32.081 112.119 32.9912 111.082 34.2534C110.045 35.5155 109.424 37.0678 109.305 38.6969C109.186 40.3261 109.574 41.9522 110.416 43.3519C111.258 44.7517 112.513 45.8563 114.008 46.5143C115.503 47.1722 117.165 47.3511 118.766 47.0264L119.601 51.1418Z" fill="black"/>
<path d="M149.355 51.1418C146.904 51.6389 144.359 51.365 142.07 50.3578C139.781 49.3506 137.86 47.6594 136.571 45.5166C135.282 43.3738 134.688 40.8844 134.871 38.3903C135.053 35.8963 136.004 33.52 137.591 31.5877C139.178 29.6555 141.325 28.2621 143.736 27.599C146.148 26.9358 148.705 27.0355 151.057 27.8842C153.409 28.7329 155.441 30.2891 156.874 32.339C158.306 34.3889 159.068 36.832 159.056 39.3327L154.857 39.3125C154.865 37.679 154.367 36.0831 153.431 34.7441C152.496 33.4051 151.169 32.3886 149.632 31.8341C148.095 31.2797 146.425 31.2147 144.85 31.6478C143.275 32.081 141.873 32.9912 140.836 34.2534C139.799 35.5155 139.178 37.0678 139.059 38.6969C138.939 40.3261 139.328 41.9522 140.17 43.3519C141.012 44.7517 142.266 45.8563 143.762 46.5143C145.257 47.1722 146.919 47.3511 148.52 47.0264L149.355 51.1418Z" fill="black"/>
<path d="M177.724 51.1418C175.273 51.6389 172.729 51.365 170.44 50.3578C168.151 49.3506 166.23 47.6594 164.941 45.5166C163.652 43.3738 163.058 40.8844 163.24 38.3903C163.423 35.8963 164.373 33.52 165.961 31.5877C167.548 29.6555 169.695 28.2621 172.106 27.599C174.517 26.9358 177.075 27.0355 179.427 27.8842C181.779 28.7329 183.811 30.2891 185.243 32.339C186.675 34.3889 187.438 36.832 187.426 39.3327L183.227 39.3125C183.235 37.679 182.737 36.0831 181.801 34.7441C180.865 33.4051 179.538 32.3886 178.002 31.8341C176.465 31.2797 174.795 31.2147 173.22 31.6478C171.645 32.081 170.242 32.9912 169.205 34.2534C168.168 35.5155 167.548 37.0678 167.428 38.6969C167.309 40.3261 167.697 41.9522 168.539 43.3519C169.381 44.7517 170.636 45.8563 172.131 46.5143C173.626 47.1722 175.289 47.3511 176.889 47.0264L177.724 51.1418Z" fill="black"/>
<rect x="91" y="35.5308" width="107.943" height="131.469" rx="10" fill="#F7F0EB"/>
<rect x="95.8436" y="75.6635" width="73.346" height="4.15166" fill="black"/>
<rect x="95.1517" y="88.1185" width="71.9621" height="4.15166" fill="black"/>
<rect x="126.289" y="102.649" width="40.8246" height="4.15166" fill="black"/>
<rect x="109.682" y="111.645" width="59.5071" height="4.15166" fill="black"/>
<path d="M177.493 35.5308H188.943C194.466 35.5308 198.943 40.008 198.943 45.5308V157C198.943 162.523 194.466 167 188.943 167H177.493V35.5308Z" fill="#F4DC00"/>
<path d="M114.601 47.1418C112.15 47.6389 109.606 47.365 107.317 46.3578C105.028 45.3506 103.107 43.6594 101.818 41.5166C100.529 39.3738 99.9346 36.8844 100.117 34.3903C100.3 31.8963 101.25 29.52 102.837 27.5877C104.425 25.6555 106.572 24.2621 108.983 23.599C111.394 22.9358 113.951 23.0355 116.304 23.8842C118.656 24.7329 120.688 26.2891 122.12 28.339C123.552 30.3889 124.315 32.832 124.303 35.3327L120.104 35.3125C120.111 33.679 119.613 32.0831 118.678 30.7441C117.742 29.4051 116.415 28.3886 114.878 27.8341C113.342 27.2797 111.671 27.2147 110.096 27.6478C108.521 28.081 107.119 28.9912 106.082 30.2534C105.045 31.5155 104.424 33.0678 104.305 34.6969C104.186 36.3261 104.574 37.9522 105.416 39.3519C106.258 40.7517 107.513 41.8563 109.008 42.5143C110.503 43.1722 112.165 43.3511 113.766 43.0264L114.601 47.1418Z" fill="#988A43"/>
<path d="M144.355 47.1418C141.904 47.6389 139.359 47.365 137.07 46.3578C134.781 45.3506 132.86 43.6594 131.571 41.5166C130.282 39.3738 129.688 36.8844 129.871 34.3903C130.053 31.8963 131.004 29.52 132.591 27.5877C134.178 25.6555 136.325 24.2621 138.736 23.599C141.148 22.9358 143.705 23.0355 146.057 23.8842C148.409 24.7329 150.441 26.2891 151.874 28.339C153.306 30.3889 154.068 32.832 154.056 35.3327L149.857 35.3125C149.865 33.679 149.367 32.0831 148.431 30.7441C147.496 29.4051 146.169 28.3886 144.632 27.8341C143.095 27.2797 141.425 27.2147 139.85 27.6478C138.275 28.081 136.873 28.9912 135.836 30.2534C134.799 31.5155 134.178 33.0678 134.059 34.6969C133.939 36.3261 134.328 37.9522 135.17 39.3519C136.012 40.7517 137.266 41.8563 138.762 42.5143C140.257 43.1722 141.919 43.3511 143.52 43.0264L144.355 47.1418Z" fill="#988A43"/>
<path d="M172.724 47.1418C170.273 47.6389 167.729 47.365 165.44 46.3578C163.151 45.3506 161.23 43.6594 159.941 41.5166C158.652 39.3738 158.058 36.8844 158.24 34.3903C158.423 31.8963 159.373 29.52 160.961 27.5877C162.548 25.6555 164.695 24.2621 167.106 23.599C169.517 22.9358 172.075 23.0355 174.427 23.8842C176.779 24.7329 178.811 26.2891 180.243 28.339C181.675 30.3889 182.438 32.832 182.426 35.3327L178.227 35.3125C178.235 33.679 177.737 32.0831 176.801 30.7441C175.865 29.4051 174.538 28.3886 173.002 27.8341C171.465 27.2797 169.795 27.2147 168.22 27.6478C166.645 28.081 165.242 28.9912 164.205 30.2534C163.168 31.5155 162.548 33.0678 162.428 34.6969C162.309 36.3261 162.697 37.9522 163.539 39.3519C164.381 40.7517 165.636 41.8563 167.131 42.5143C168.626 43.1722 170.289 43.3511 171.889 43.0264L172.724 47.1418Z" fill="#988A43"/>
</svg>
